<?xml version="1.0" encoding="UTF-8"?>
<svg xmlns="http://www.w3.org/2000/svg" version="1.1" viewBox="0 0 128 128">
  <defs>
    <style>
      .cls-1 {
        fill: #2563eb;
      }
    </style>
  </defs>
  <!-- Generator: Adobe Illustrator 28.7.8, SVG Export Plug-In . SVG Version: 1.2.0 Build 200)  -->
  <g>
    <g id="Capa_1">
      <path class="cls-1" d="M0,117.5C0,81.8,0,46.2,0,10.5c0-.1.2-.2.2-.3C1.2,5.1,5.1,1.2,10.1.2c.1,0,.2-.1.3-.2,35.7,0,71.4,0,107.1,0,.1,0,.2.2.3.2,5,1,8.9,4.9,9.9,9.9,0,.1.1.2.2.3v107.1c0,.1-.2.2-.2.3-1,5.1-4.9,9-9.9,9.9-.1,0-.2.1-.3.2H10.5c-.1,0-.2-.2-.3-.2-5.1-1-9-4.9-9.9-9.9,0-.1-.1-.2-.2-.3ZM79.3,102.1s0,0,0,.1c0,3.9,0,7.9,0,11.8,0,.2.2.4.3.5,1.8.9,3.6,1.5,5.5,1.9,2.6.6,5.1.9,7.8,1,3,0,5.9,0,8.9-.4,2.2-.4,4.3-.8,6.3-1.7,5.7-2.5,9-6.8,9.3-13.1,0-1.2,0-2.3,0-3.5,0-1.5-.5-2.9-1-4.3-.9-2.1-2.3-3.8-4-5.3-2.4-2.1-5.2-3.5-8.1-4.8-2.5-1.1-4.9-2.2-7.3-3.4-1.5-.8-2.9-1.8-3.8-3.2-.8-1.2-1.1-2.5-.5-3.9.6-1.5,1.7-2.4,3-3.1,1.7-.8,3.6-1.1,5.5-1.1,1.6,0,3.3.2,4.9.4,3.1.4,5.9,1.5,8.5,3.1.1,0,.3.2.5.3v-.6c0-3.5,0-7,0-10.5,0-.4-.1-.6-.5-.8-2.2-.8-4.5-1.3-6.8-1.5-1.8-.1-3.7-.3-5.5-.4-1.1,0-2.2,0-3.3,0-2.1,0-4.1.4-6.2.8-2.2.5-4.3,1.3-6.2,2.4-5,2.9-7.4,7.3-7.5,13.1,0,.9.1,1.7.2,2.6.4,3.3,1.8,6.1,4.2,8.4,1.6,1.6,3.3,2.9,5.3,3.8,2.6,1.3,5.2,2.4,7.8,3.5,2,.9,3.9,1.9,5.6,3.3,1.4,1.2,2.3,2.6,2.1,4.6,0,1-.3,2-1.1,2.7-.7.6-1.4,1.2-2.2,1.6-1.7.9-3.6,1.1-5.5,1.1-1.4,0-2.8-.1-4.1-.3-2.5-.4-5-1.1-7.3-2.3-1.6-.9-3.1-1.9-4.6-2.9ZM58.2,116.7v-45.7h16v-10.2H29.5v10.3h15.9v45.7h12.7Z"/>
    </g>
  </g>
</svg>