<?xml version="1.0" encoding="UTF-8"?>
<svg id="Capa_1" xmlns="http://www.w3.org/2000/svg" viewBox="0 0 128 128">
  <defs>
    <style>
      .cls-1 {
        fill: #2563eb;
      }
    </style>
  </defs>
  <path class="cls-1" d="M63.43,2.94c9.77,12.35,19.85,23.45,24.93,37.75,8.55,24.06,3.13,45.32-14.28,63.38-5.04,5.23-8.8,10.18-8.5,17.65.04,1.06-1.2,2.17-1.85,3.26-.64-1.1-1.84-2.21-1.83-3.3.1-7.2-3.15-12.19-8.23-17.35-21.17-21.51-24.41-49.19-8.96-75.05,5.41-9.06,12.22-17.29,18.71-26.34ZM64.1,47.26c-.2,0-.4-.01-.59-.02-.13.98-.33,1.95-.38,2.93-.48,8.88-.99,17.75-1.39,26.63-.43,9.55-.9,19.1-.98,28.65-.01,1.5,1.91,3.03,2.93,4.54,1.07-1.47,2.2-2.9,3.18-4.43.24-.37,0-1.04-.02-1.57-.63-14.98-1.24-29.97-1.91-44.95-.18-3.94-.55-7.86-.84-11.79Z"/>
</svg>