<?xml version="1.0" encoding="UTF-8"?>
<svg xmlns="http://www.w3.org/2000/svg" version="1.1" viewBox="0 0 128 128">
  <defs>
    <style>
      .cls-1 {
        fill: #2563eb;
        stroke: #2563eb;
        stroke-miterlimit: 10;
      }
    </style>
  </defs>
  <!-- Generator: Adobe Illustrator 28.7.8, SVG Export Plug-In . SVG Version: 1.2.0 Build 200)  -->
  <g>
    <g id="Capa_1">
      <path class="cls-1" d="M116.5,6.6c-1.8,4.3-4.1,8.4-6.8,12.1C97.6,6.7,81.2,0,64.2,0,29,0,0,29,0,64.2c0,17.6,7.2,34.4,19.9,46.6l2.4,2.1c11.6,9.8,26.2,15.1,41.4,15.1,33.5,0,61.6-26.2,64-59.7,1.8-16.4-3.1-37.1-11.2-61.7ZM29.1,111.2c-1,1.3-2.6,2-4.3,2-3,0-5.5-2.5-5.5-5.5s2.5-5.5,5.5-5.5,2.5.4,3.5,1.2c2.4,1.9,2.7,5.4.8,7.7ZM116.2,91.9c-15.8,21.1-49.7,14-71.4,15,0,0-3.9.2-7.7.9,0,0,1.5-.6,3.3-1.3,15.2-5.3,22.4-6.3,31.7-11.1,17.4-8.9,34.7-28.3,38.2-48.5-6.6,19.4-26.8,36.1-45.1,42.9-12.6,4.6-35.2,9.1-35.2,9.1l-.9-.5c-15.4-7.5-15.9-41,12.2-51.8,12.3-4.7,24-2.1,37.3-5.3,14.2-3.4,30.6-14,37.2-27.9,7.5,22.2,16.5,56.9.3,78.4h0Z"/>
    </g>
  </g>
</svg>